<svg xmlns="http://www.w3.org/2000/svg" version="1.1" xmlns:xlink="http://www.w3.org/1999/xlink" xmlns:svgjs="http://svgjs.dev/svgjs" viewBox="0 0 400 400" opacity="0.51">
    <g stroke-width="" stroke="hsl(265, 55%, 20%)" fill="none" stroke-linecap="round" transform="matrix(1,0,0,1,-5,0) rotate(45, 120, 120)">
        
        <path d="M10,10C49.583333333333336,14.791666666666668,118.75,41.75,200,33C281.25,24.25,316.66666666666663,-32.833333333333336,400,-32C483.33333333333337,-31.166666666666668,516.6666666666666,36.166666666666664,600,37C683.3333333333334,37.833333333333336,758.3333333333334,-14.458333333333332,800,-28" transform="matrix(1,0,0,1,0,300)"></path>
        <path d="M10,10C49.583333333333336,14.791666666666668,118.75,41.75,200,33C281.25,24.25,316.66666666666663,-32.833333333333336,400,-32C483.33333333333337,-31.166666666666668,516.6666666666666,36.166666666666664,600,37C683.3333333333334,37.833333333333336,758.3333333333334,-14.458333333333332,800,-28" transform="matrix(1,0,0,1,0,270)"></path>
        <path d="M10,10C49.583333333333336,14.791666666666668,118.75,41.75,200,33C281.25,24.25,316.66666666666663,-32.833333333333336,400,-32C483.33333333333337,-31.166666666666668,516.6666666666666,36.166666666666664,600,37C683.3333333333334,37.833333333333336,758.3333333333334,-14.458333333333332,800,-28" transform="matrix(1,0,0,1,0,240)"></path>
        <path d="M10,10C49.583333333333336,14.791666666666668,118.75,41.75,200,33C281.25,24.25,316.66666666666663,-32.833333333333336,400,-32C483.33333333333337,-31.166666666666668,516.6666666666666,36.166666666666664,600,37C683.3333333333334,37.833333333333336,758.3333333333334,-14.458333333333332,800,-28" transform="matrix(1,0,0,1,0,210)"></path>
        <path d="M10,10C49.583333333333336,14.791666666666668,118.75,41.75,200,33C281.25,24.25,316.66666666666663,-32.833333333333336,400,-32C483.33333333333337,-31.166666666666668,516.6666666666666,36.166666666666664,600,37C683.3333333333334,37.833333333333336,758.3333333333334,-14.458333333333332,800,-28" transform="matrix(1,0,0,1,0,180)"></path>
        <path d="M10,10C49.583333333333336,14.791666666666668,118.75,41.75,200,33C281.25,24.25,316.66666666666663,-32.833333333333336,400,-32C483.33333333333337,-31.166666666666668,516.6666666666666,36.166666666666664,600,37C683.3333333333334,37.833333333333336,758.3333333333334,-14.458333333333332,800,-28" transform="matrix(1,0,0,1,0,150)"></path>
        <path d="M10,10C49.583333333333336,14.791666666666668,118.75,41.75,200,33C281.25,24.25,316.66666666666663,-32.833333333333336,400,-32C483.33333333333337,-31.166666666666668,516.6666666666666,36.166666666666664,600,37C683.3333333333334,37.833333333333336,758.3333333333334,-14.458333333333332,800,-28" transform="matrix(1,0,0,1,0,120)"></path>
        <path d="M10,10C49.583333333333336,14.791666666666668,118.75,41.75,200,33C281.25,24.25,316.66666666666663,-32.833333333333336,400,-32C483.33333333333337,-31.166666666666668,516.6666666666666,36.166666666666664,600,37C683.3333333333334,37.833333333333336,758.3333333333334,-14.458333333333332,800,-28" transform="matrix(1,0,0,1,0,90)"></path>
        <path d="M10,10C49.583333333333336,14.791666666666668,118.75,41.75,200,33C281.25,24.25,316.66666666666663,-32.833333333333336,400,-32C483.33333333333337,-31.166666666666668,516.6666666666666,36.166666666666664,600,37C683.3333333333334,37.833333333333336,758.3333333333334,-14.458333333333332,800,-28" transform="matrix(1,0,0,1,0,60)"></path>
        <path d="M10,10C49.583333333333336,14.791666666666668,118.75,41.75,200,33C281.25,24.25,316.66666666666663,-32.833333333333336,400,-32C483.33333333333337,-31.166666666666668,516.6666666666666,36.166666666666664,600,37C683.3333333333334,37.833333333333336,758.3333333333334,-14.458333333333332,800,-28" transform="matrix(1,0,0,1,0,30)"></path>
        <path d="M10,10C49.583333333333336,14.791666666666668,118.75,41.75,200,33C281.25,24.25,316.66666666666663,-32.833333333333336,400,-32C483.33333333333337,-31.166666666666668,516.6666666666666,36.166666666666664,600,37C683.3333333333334,37.833333333333336,758.3333333333334,-14.458333333333332,800,-28" transform="matrix(1,0,0,1,0,0)"></path>
        <path d="M10,10C49.583333333333336,14.791666666666668,118.75,41.75,200,33C281.25,24.25,316.66666666666663,-32.833333333333336,400,-32C483.33333333333337,-31.166666666666668,516.6666666666666,36.166666666666664,600,37C683.3333333333334,37.833333333333336,758.3333333333334,-14.458333333333332,800,-28" transform="matrix(1,0,0,1,0,-30)"></path>
        <path d="M10,10C49.583333333333336,14.791666666666668,118.75,41.75,200,33C281.25,24.25,316.66666666666663,-32.833333333333336,400,-32C483.33333333333337,-31.166666666666668,516.6666666666666,36.166666666666664,600,37C683.3333333333334,37.833333333333336,758.3333333333334,-14.458333333333332,800,-28" transform="matrix(1,0,0,1,0,-60)"></path>
        <path d="M10,10C49.583333333333336,14.791666666666668,118.75,41.75,200,33C281.25,24.25,316.66666666666663,-32.833333333333336,400,-32C483.33333333333337,-31.166666666666668,516.6666666666666,36.166666666666664,600,37C683.3333333333334,37.833333333333336,758.3333333333334,-14.458333333333332,800,-28" transform="matrix(1,0,0,1,0,-90)"></path>
        <path d="M10,10C49.583333333333336,14.791666666666668,118.75,41.75,200,33C281.25,24.25,316.66666666666663,-32.833333333333336,400,-32C483.33333333333337,-31.166666666666668,516.6666666666666,36.166666666666664,600,37C683.3333333333334,37.833333333333336,758.3333333333334,-14.458333333333332,800,-28" transform="matrix(1,0,0,1,0,-120)"></path>
        

    </g>
</svg>
